%TF.GenerationSoftware,KiCad,Pcbnew,9.0.5*%
%TF.CreationDate,2026-03-12T09:01:16-04:00*%
%TF.ProjectId,MeshMite,4d657368-4d69-4746-952e-6b696361645f,rev?*%
%TF.SameCoordinates,Original*%
%TF.FileFunction,Copper,L2,Inr*%
%TF.FilePolarity,Positive*%
%FSLAX46Y46*%
G04 Gerber Fmt 4.6, Leading zero omitted, Abs format (unit mm)*
G04 Created by KiCad (PCBNEW 9.0.5) date 2026-03-12 09:01:16*
%MOMM*%
%LPD*%
G01*
G04 APERTURE LIST*
G04 Aperture macros list*
%AMRoundRect*
0 Rectangle with rounded corners*
0 $1 Rounding radius*
0 $2 $3 $4 $5 $6 $7 $8 $9 X,Y pos of 4 corners*
0 Add a 4 corners polygon primitive as box body*
4,1,4,$2,$3,$4,$5,$6,$7,$8,$9,$2,$3,0*
0 Add four circle primitives for the rounded corners*
1,1,$1+$1,$2,$3*
1,1,$1+$1,$4,$5*
1,1,$1+$1,$6,$7*
1,1,$1+$1,$8,$9*
0 Add four rect primitives between the rounded corners*
20,1,$1+$1,$2,$3,$4,$5,0*
20,1,$1+$1,$4,$5,$6,$7,0*
20,1,$1+$1,$6,$7,$8,$9,0*
20,1,$1+$1,$8,$9,$2,$3,0*%
G04 Aperture macros list end*
%TA.AperFunction,ComponentPad*%
%ADD10RoundRect,0.250000X-0.750000X0.600000X-0.750000X-0.600000X0.750000X-0.600000X0.750000X0.600000X0*%
%TD*%
%TA.AperFunction,ComponentPad*%
%ADD11O,2.000000X1.700000*%
%TD*%
%TA.AperFunction,ComponentPad*%
%ADD12RoundRect,0.250000X0.750000X-0.600000X0.750000X0.600000X-0.750000X0.600000X-0.750000X-0.600000X0*%
%TD*%
%TA.AperFunction,ComponentPad*%
%ADD13R,1.000000X1.000000*%
%TD*%
%TA.AperFunction,ComponentPad*%
%ADD14C,1.000000*%
%TD*%
%TA.AperFunction,ViaPad*%
%ADD15C,0.600000*%
%TD*%
G04 APERTURE END LIST*
D10*
%TO.N,GND*%
%TO.C,SC1*%
X116047499Y-88046242D03*
D11*
%TO.N,Net-(SC1--)*%
X116047499Y-90546242D03*
%TD*%
D12*
%TO.N,VBAT*%
%TO.C,BT1*%
X136405368Y-90506457D03*
D11*
%TO.N,GND*%
X136405368Y-88006457D03*
%TD*%
D13*
%TO.N,/nrf52/VTref*%
%TO.C,J1*%
X117730000Y-76190000D03*
D14*
%TO.N,/nrf52/SWDIO*%
X119000000Y-76190000D03*
%TO.N,GND*%
X117730000Y-77460000D03*
%TO.N,/nrf52/SWCLK*%
X119000000Y-77460000D03*
%TO.N,GND*%
X117730000Y-78730000D03*
%TO.N,unconnected-(J1-SWO{slash}TDO-Pad6)*%
X119000000Y-78730000D03*
%TO.N,unconnected-(J1-KEY-Pad7)*%
X117730000Y-80000000D03*
%TO.N,unconnected-(J1-NC{slash}TDI-Pad8)*%
X119000000Y-80000000D03*
%TO.N,GND*%
X117730000Y-81270000D03*
%TO.N,/nrf52/RESET*%
X119000000Y-81270000D03*
%TD*%
D15*
%TO.N,VBAT*%
X130300000Y-85700000D03*
%TO.N,+3V3*%
X133000000Y-66000000D03*
X132000000Y-82000000D03*
%TO.N,GND*%
X129050000Y-86450000D03*
X124928398Y-92292375D03*
X125000000Y-89450000D03*
X128000000Y-78950000D03*
X118000000Y-88000000D03*
X116000000Y-79000000D03*
X120000000Y-85000000D03*
X125000000Y-87000000D03*
%TD*%
%TA.AperFunction,Conductor*%
%TO.N,GND*%
G36*
X139157611Y-51824633D02*
G01*
X139203366Y-51877437D01*
X139214572Y-51928948D01*
X139214572Y-93775500D01*
X139194887Y-93842539D01*
X139142083Y-93888294D01*
X139090572Y-93899500D01*
X113224500Y-93899500D01*
X113157461Y-93879815D01*
X113111706Y-93827011D01*
X113100500Y-93775500D01*
X113100500Y-90439955D01*
X114546999Y-90439955D01*
X114546999Y-90652528D01*
X114580252Y-90862481D01*
X114645943Y-91064656D01*
X114742450Y-91254062D01*
X114867389Y-91426028D01*
X115017712Y-91576351D01*
X115189678Y-91701290D01*
X115189680Y-91701291D01*
X115189683Y-91701293D01*
X115379087Y-91797799D01*
X115581256Y-91863488D01*
X115791212Y-91896742D01*
X115791213Y-91896742D01*
X116303785Y-91896742D01*
X116303786Y-91896742D01*
X116513742Y-91863488D01*
X116715911Y-91797799D01*
X116905315Y-91701293D01*
X116927288Y-91685328D01*
X117077285Y-91576351D01*
X117077287Y-91576348D01*
X117077291Y-91576346D01*
X117227603Y-91426034D01*
X117227605Y-91426030D01*
X117227608Y-91426028D01*
X117352547Y-91254062D01*
X117352546Y-91254062D01*
X117352550Y-91254058D01*
X117449056Y-91064654D01*
X117514745Y-90862485D01*
X117547999Y-90652529D01*
X117547999Y-90439955D01*
X117514745Y-90229999D01*
X117449056Y-90027830D01*
X117361729Y-89856440D01*
X134904868Y-89856440D01*
X134904868Y-91156458D01*
X134904869Y-91156475D01*
X134915368Y-91259253D01*
X134915369Y-91259256D01*
X134970553Y-91425788D01*
X134970554Y-91425791D01*
X135062656Y-91575113D01*
X135186712Y-91699169D01*
X135336034Y-91791271D01*
X135502571Y-91846456D01*
X135605359Y-91856957D01*
X137205376Y-91856956D01*
X137308165Y-91846456D01*
X137474702Y-91791271D01*
X137624024Y-91699169D01*
X137748080Y-91575113D01*
X137840182Y-91425791D01*
X137895367Y-91259254D01*
X137905868Y-91156466D01*
X137905867Y-89856449D01*
X137904025Y-89838421D01*
X137895367Y-89753660D01*
X137895366Y-89753657D01*
X137840182Y-89587123D01*
X137748080Y-89437801D01*
X137624024Y-89313745D01*
X137474702Y-89221643D01*
X137474700Y-89221642D01*
X137468808Y-89218008D01*
X137422084Y-89166060D01*
X137410861Y-89097098D01*
X137438705Y-89033015D01*
X137446224Y-89024787D01*
X137585096Y-88885915D01*
X137709988Y-88714014D01*
X137806463Y-88524674D01*
X137872125Y-88322586D01*
X137872125Y-88322583D01*
X137882599Y-88256457D01*
X136838380Y-88256457D01*
X136871293Y-88199450D01*
X136905368Y-88072283D01*
X136905368Y-87940631D01*
X136871293Y-87813464D01*
X136838380Y-87756457D01*
X137882599Y-87756457D01*
X137872125Y-87690330D01*
X137872125Y-87690327D01*
X137806463Y-87488239D01*
X137709988Y-87298899D01*
X137585095Y-87126997D01*
X137585091Y-87126992D01*
X137434832Y-86976733D01*
X137434827Y-86976729D01*
X137262925Y-86851836D01*
X137073585Y-86755361D01*
X136871497Y-86689699D01*
X136661614Y-86656457D01*
X136655368Y-86656457D01*
X136655368Y-87573445D01*
X136598361Y-87540532D01*
X136471194Y-87506457D01*
X136339542Y-87506457D01*
X136212375Y-87540532D01*
X136155368Y-87573445D01*
X136155368Y-86656457D01*
X136149122Y-86656457D01*
X135939240Y-86689699D01*
X135939237Y-86689699D01*
X135737150Y-86755361D01*
X135547810Y-86851836D01*
X135375908Y-86976729D01*
X135375903Y-86976733D01*
X135225644Y-87126992D01*
X135225640Y-87126997D01*
X135100747Y-87298899D01*
X135004272Y-87488239D01*
X134938610Y-87690327D01*
X134938610Y-87690330D01*
X134928137Y-87756457D01*
X135972356Y-87756457D01*
X135939443Y-87813464D01*
X135905368Y-87940631D01*
X135905368Y-88072283D01*
X135939443Y-88199450D01*
X135972356Y-88256457D01*
X134928137Y-88256457D01*
X134938610Y-88322583D01*
X134938610Y-88322586D01*
X135004272Y-88524674D01*
X135100747Y-88714014D01*
X135225640Y-88885916D01*
X135225644Y-88885921D01*
X135364511Y-89024788D01*
X135397996Y-89086111D01*
X135393012Y-89155803D01*
X135351140Y-89211736D01*
X135341927Y-89218008D01*
X135186710Y-89313746D01*
X135062657Y-89437799D01*
X134970555Y-89587120D01*
X134970554Y-89587123D01*
X134915369Y-89753660D01*
X134915369Y-89753661D01*
X134915368Y-89753661D01*
X134904868Y-89856440D01*
X117361729Y-89856440D01*
X117352550Y-89838426D01*
X117344522Y-89827376D01*
X117227608Y-89666455D01*
X117088430Y-89527277D01*
X117054945Y-89465954D01*
X117059929Y-89396262D01*
X117101801Y-89340329D01*
X117111015Y-89334057D01*
X117265842Y-89238559D01*
X117389814Y-89114587D01*
X117481855Y-88965366D01*
X117481857Y-88965361D01*
X117537004Y-88798939D01*
X117537005Y-88798932D01*
X117547498Y-88696228D01*
X117547499Y-88696215D01*
X117547499Y-88296242D01*
X116480511Y-88296242D01*
X116513424Y-88239235D01*
X116547499Y-88112068D01*
X116547499Y-87980416D01*
X116513424Y-87853249D01*
X116480511Y-87796242D01*
X117547498Y-87796242D01*
X117547498Y-87396270D01*
X117547497Y-87396255D01*
X117537004Y-87293544D01*
X117481857Y-87127122D01*
X117481855Y-87127117D01*
X117389814Y-86977896D01*
X117265844Y-86853926D01*
X117116623Y-86761885D01*
X117116618Y-86761883D01*
X116950196Y-86706736D01*
X116950189Y-86706735D01*
X116847485Y-86696242D01*
X116297499Y-86696242D01*
X116297499Y-87613230D01*
X116240492Y-87580317D01*
X116113325Y-87546242D01*
X115981673Y-87546242D01*
X115854506Y-87580317D01*
X115797499Y-87613230D01*
X115797499Y-86696242D01*
X115247527Y-86696242D01*
X115247511Y-86696243D01*
X115144801Y-86706736D01*
X114978379Y-86761883D01*
X114978374Y-86761885D01*
X114829153Y-86853926D01*
X114705183Y-86977896D01*
X114613142Y-87127117D01*
X114613140Y-87127122D01*
X114557993Y-87293544D01*
X114557992Y-87293551D01*
X114547499Y-87396255D01*
X114547499Y-87796242D01*
X115614487Y-87796242D01*
X115581574Y-87853249D01*
X115547499Y-87980416D01*
X115547499Y-88112068D01*
X115581574Y-88239235D01*
X115614487Y-88296242D01*
X114547500Y-88296242D01*
X114547500Y-88696228D01*
X114557993Y-88798939D01*
X114613140Y-88965361D01*
X114613142Y-88965366D01*
X114705183Y-89114587D01*
X114829153Y-89238557D01*
X114983983Y-89334057D01*
X115030707Y-89386005D01*
X115041930Y-89454968D01*
X115014086Y-89519050D01*
X115006568Y-89527277D01*
X114867388Y-89666457D01*
X114742450Y-89838421D01*
X114645943Y-90027827D01*
X114580252Y-90230002D01*
X114546999Y-90439955D01*
X113100500Y-90439955D01*
X113100500Y-85621153D01*
X129499500Y-85621153D01*
X129499500Y-85778846D01*
X129530261Y-85933489D01*
X129530264Y-85933501D01*
X129590602Y-86079172D01*
X129590609Y-86079185D01*
X129678210Y-86210288D01*
X129678213Y-86210292D01*
X129789707Y-86321786D01*
X129789711Y-86321789D01*
X129920814Y-86409390D01*
X129920827Y-86409397D01*
X130066498Y-86469735D01*
X130066503Y-86469737D01*
X130221153Y-86500499D01*
X130221156Y-86500500D01*
X130221158Y-86500500D01*
X130378844Y-86500500D01*
X130378845Y-86500499D01*
X130533497Y-86469737D01*
X130679179Y-86409394D01*
X130810289Y-86321789D01*
X130921789Y-86210289D01*
X131009394Y-86079179D01*
X131069737Y-85933497D01*
X131100500Y-85778842D01*
X131100500Y-85621158D01*
X131100500Y-85621155D01*
X131100499Y-85621153D01*
X131069738Y-85466510D01*
X131069737Y-85466503D01*
X131069735Y-85466498D01*
X131009397Y-85320827D01*
X131009390Y-85320814D01*
X130921789Y-85189711D01*
X130921786Y-85189707D01*
X130810292Y-85078213D01*
X130810288Y-85078210D01*
X130679185Y-84990609D01*
X130679172Y-84990602D01*
X130533501Y-84930264D01*
X130533489Y-84930261D01*
X130378845Y-84899500D01*
X130378842Y-84899500D01*
X130221158Y-84899500D01*
X130221155Y-84899500D01*
X130066510Y-84930261D01*
X130066498Y-84930264D01*
X129920827Y-84990602D01*
X129920814Y-84990609D01*
X129789711Y-85078210D01*
X129789707Y-85078213D01*
X129678213Y-85189707D01*
X129678210Y-85189711D01*
X129590609Y-85320814D01*
X129590602Y-85320827D01*
X129530264Y-85466498D01*
X129530261Y-85466510D01*
X129499500Y-85621153D01*
X113100500Y-85621153D01*
X113100500Y-80098543D01*
X116729499Y-80098543D01*
X116767947Y-80291829D01*
X116767950Y-80291839D01*
X116843365Y-80473907D01*
X116843368Y-80473914D01*
X116883885Y-80534552D01*
X116905271Y-80566559D01*
X116926148Y-80633236D01*
X116907663Y-80700616D01*
X116905271Y-80704339D01*
X116843809Y-80796325D01*
X116768430Y-80978306D01*
X116768427Y-80978318D01*
X116730000Y-81171504D01*
X116730000Y-81368495D01*
X116768427Y-81561681D01*
X116768430Y-81561693D01*
X116843808Y-81743673D01*
X116843809Y-81743675D01*
X116867426Y-81779019D01*
X117405000Y-81241445D01*
X117405000Y-81312787D01*
X117427149Y-81395445D01*
X117469936Y-81469554D01*
X117530446Y-81530064D01*
X117604555Y-81572851D01*
X117687213Y-81595000D01*
X117758552Y-81595000D01*
X117220979Y-82132572D01*
X117256328Y-82156192D01*
X117438306Y-82231569D01*
X117438318Y-82231572D01*
X117631504Y-82269999D01*
X117631508Y-82270000D01*
X117828492Y-82270000D01*
X117828495Y-82269999D01*
X118021681Y-82231572D01*
X118021693Y-82231569D01*
X118203673Y-82156191D01*
X118203676Y-82156189D01*
X118295657Y-82094729D01*
X118362334Y-82073850D01*
X118429715Y-82092334D01*
X118433440Y-82094728D01*
X118526079Y-82156628D01*
X118526092Y-82156635D01*
X118708160Y-82232049D01*
X118708165Y-82232051D01*
X118708169Y-82232051D01*
X118708170Y-82232052D01*
X118901456Y-82270500D01*
X118901459Y-82270500D01*
X119098543Y-82270500D01*
X119284545Y-82233501D01*
X119291835Y-82232051D01*
X119473914Y-82156632D01*
X119637782Y-82047139D01*
X119763768Y-81921153D01*
X131199500Y-81921153D01*
X131199500Y-82078846D01*
X131230261Y-82233489D01*
X131230264Y-82233501D01*
X131290602Y-82379172D01*
X131290609Y-82379185D01*
X131378210Y-82510288D01*
X131378213Y-82510292D01*
X131489707Y-82621786D01*
X131489711Y-82621789D01*
X131620814Y-82709390D01*
X131620827Y-82709397D01*
X131766498Y-82769735D01*
X131766503Y-82769737D01*
X131921153Y-82800499D01*
X131921156Y-82800500D01*
X131921158Y-82800500D01*
X132078844Y-82800500D01*
X132078845Y-82800499D01*
X132233497Y-82769737D01*
X132379179Y-82709394D01*
X132510289Y-82621789D01*
X132621789Y-82510289D01*
X132709394Y-82379179D01*
X132769737Y-82233497D01*
X132800500Y-82078842D01*
X132800500Y-81921158D01*
X132800500Y-81921155D01*
X132800499Y-81921153D01*
X132785585Y-81846175D01*
X132769737Y-81766503D01*
X132760383Y-81743920D01*
X132709397Y-81620827D01*
X132709390Y-81620814D01*
X132621789Y-81489711D01*
X132621786Y-81489707D01*
X132510292Y-81378213D01*
X132510288Y-81378210D01*
X132379185Y-81290609D01*
X132379172Y-81290602D01*
X132233501Y-81230264D01*
X132233489Y-81230261D01*
X132078845Y-81199500D01*
X132078842Y-81199500D01*
X131921158Y-81199500D01*
X131921155Y-81199500D01*
X131766510Y-81230261D01*
X131766498Y-81230264D01*
X131620827Y-81290602D01*
X131620814Y-81290609D01*
X131489711Y-81378210D01*
X131489707Y-81378213D01*
X131378213Y-81489707D01*
X131378210Y-81489711D01*
X131290609Y-81620814D01*
X131290602Y-81620827D01*
X131230264Y-81766498D01*
X131230261Y-81766510D01*
X131199500Y-81921153D01*
X119763768Y-81921153D01*
X119777139Y-81907782D01*
X119799623Y-81874131D01*
X119818304Y-81846175D01*
X119886628Y-81743920D01*
X119886628Y-81743919D01*
X119886632Y-81743914D01*
X119962051Y-81561835D01*
X119990181Y-81420418D01*
X120000500Y-81368543D01*
X120000500Y-81171456D01*
X119962052Y-80978170D01*
X119962051Y-80978169D01*
X119962051Y-80978165D01*
X119957488Y-80967149D01*
X119886635Y-80796092D01*
X119886633Y-80796088D01*
X119886632Y-80796086D01*
X119825029Y-80703891D01*
X119804151Y-80637214D01*
X119822635Y-80569834D01*
X119825029Y-80566109D01*
X119837872Y-80546887D01*
X119886632Y-80473914D01*
X119962051Y-80291835D01*
X120000500Y-80098541D01*
X120000500Y-79901459D01*
X120000500Y-79901456D01*
X119962052Y-79708170D01*
X119962051Y-79708169D01*
X119962051Y-79708165D01*
X119886635Y-79526093D01*
X119886635Y-79526092D01*
X119886633Y-79526088D01*
X119886632Y-79526086D01*
X119825029Y-79433891D01*
X119804151Y-79367214D01*
X119822635Y-79299834D01*
X119825029Y-79296109D01*
X119837872Y-79276887D01*
X119886632Y-79203914D01*
X119962051Y-79021835D01*
X119980407Y-78929554D01*
X120000500Y-78828543D01*
X120000500Y-78631456D01*
X119962052Y-78438170D01*
X119962051Y-78438169D01*
X119962051Y-78438165D01*
X119936486Y-78376445D01*
X119886635Y-78256092D01*
X119886633Y-78256088D01*
X119886632Y-78256086D01*
X119825029Y-78163891D01*
X119804151Y-78097214D01*
X119822635Y-78029834D01*
X119825029Y-78026109D01*
X119863175Y-77969019D01*
X119886632Y-77933914D01*
X119962051Y-77751835D01*
X119980407Y-77659554D01*
X120000500Y-77558543D01*
X120000500Y-77361456D01*
X119962052Y-77168170D01*
X119962051Y-77168169D01*
X119962051Y-77168165D01*
X119919874Y-77066340D01*
X119886635Y-76986092D01*
X119886633Y-76986088D01*
X119886632Y-76986086D01*
X119825029Y-76893891D01*
X119804151Y-76827214D01*
X119822635Y-76759834D01*
X119825029Y-76756109D01*
X119837872Y-76736887D01*
X119886632Y-76663914D01*
X119962051Y-76481835D01*
X120000500Y-76288541D01*
X120000500Y-76091459D01*
X120000500Y-76091456D01*
X119962052Y-75898170D01*
X119962051Y-75898169D01*
X119962051Y-75898165D01*
X119962049Y-75898160D01*
X119886635Y-75716092D01*
X119886628Y-75716079D01*
X119777139Y-75552218D01*
X119777136Y-75552214D01*
X119637785Y-75412863D01*
X119637781Y-75412860D01*
X119473920Y-75303371D01*
X119473907Y-75303364D01*
X119291839Y-75227950D01*
X119291829Y-75227947D01*
X119098543Y-75189500D01*
X119098541Y-75189500D01*
X118901459Y-75189500D01*
X118901457Y-75189500D01*
X118708171Y-75227947D01*
X118708168Y-75227948D01*
X118708166Y-75227948D01*
X118708165Y-75227949D01*
X118708163Y-75227950D01*
X118605874Y-75270318D01*
X118536404Y-75277785D01*
X118484113Y-75255023D01*
X118472335Y-75246206D01*
X118472328Y-75246202D01*
X118337482Y-75195908D01*
X118337483Y-75195908D01*
X118277883Y-75189501D01*
X118277881Y-75189500D01*
X118277873Y-75189500D01*
X118277864Y-75189500D01*
X117182129Y-75189500D01*
X117182123Y-75189501D01*
X117122516Y-75195908D01*
X116987671Y-75246202D01*
X116987664Y-75246206D01*
X116872455Y-75332452D01*
X116872452Y-75332455D01*
X116786206Y-75447664D01*
X116786202Y-75447671D01*
X116735908Y-75582517D01*
X116729501Y-75642116D01*
X116729500Y-75642135D01*
X116729500Y-76737870D01*
X116729501Y-76737876D01*
X116735908Y-76797483D01*
X116786202Y-76932328D01*
X116786203Y-76932330D01*
X116795372Y-76944578D01*
X116819788Y-77010043D01*
X116810665Y-77066340D01*
X116768432Y-77168300D01*
X116768427Y-77168317D01*
X116730000Y-77361504D01*
X116730000Y-77558495D01*
X116768427Y-77751681D01*
X116768430Y-77751693D01*
X116843808Y-77933673D01*
X116843809Y-77933675D01*
X116867425Y-77969019D01*
X117405000Y-77431445D01*
X117405000Y-77502787D01*
X117427149Y-77585445D01*
X117469936Y-77659554D01*
X117530446Y-77720064D01*
X117604555Y-77762851D01*
X117687213Y-77785000D01*
X117772787Y-77785000D01*
X117855445Y-77762851D01*
X117929554Y-77720064D01*
X117990064Y-77659554D01*
X118012025Y-77621515D01*
X118037947Y-77751829D01*
X118037949Y-77751834D01*
X118060782Y-77806960D01*
X118068250Y-77876429D01*
X118036974Y-77938908D01*
X117976885Y-77974560D01*
X117907059Y-77972065D01*
X117858538Y-77942092D01*
X117730000Y-77813553D01*
X117448553Y-78095000D01*
X117729999Y-78376445D01*
X117858538Y-78247907D01*
X117919862Y-78214422D01*
X117989553Y-78219406D01*
X118045487Y-78261277D01*
X118069904Y-78326742D01*
X118060782Y-78383039D01*
X118037949Y-78438164D01*
X118037947Y-78438170D01*
X118012025Y-78568484D01*
X117990064Y-78530446D01*
X117929554Y-78469936D01*
X117855445Y-78427149D01*
X117772787Y-78405000D01*
X117687213Y-78405000D01*
X117604555Y-78427149D01*
X117530446Y-78469936D01*
X117469936Y-78530446D01*
X117427149Y-78604555D01*
X117405000Y-78687213D01*
X117405000Y-78758553D01*
X116867426Y-78220979D01*
X116843813Y-78256318D01*
X116843809Y-78256325D01*
X116768429Y-78438310D01*
X116768427Y-78438318D01*
X116730000Y-78631504D01*
X116730000Y-78828495D01*
X116768427Y-79021681D01*
X116768430Y-79021693D01*
X116843807Y-79203671D01*
X116843814Y-79203684D01*
X116905270Y-79295659D01*
X116926148Y-79362337D01*
X116907663Y-79429717D01*
X116905271Y-79433440D01*
X116843370Y-79526082D01*
X116843364Y-79526093D01*
X116767950Y-79708160D01*
X116767947Y-79708170D01*
X116729500Y-79901456D01*
X116729500Y-79901459D01*
X116729500Y-80098541D01*
X116729500Y-80098543D01*
X116729499Y-80098543D01*
X113100500Y-80098543D01*
X113100500Y-65921153D01*
X132199500Y-65921153D01*
X132199500Y-66078846D01*
X132230261Y-66233489D01*
X132230264Y-66233501D01*
X132290602Y-66379172D01*
X132290609Y-66379185D01*
X132378210Y-66510288D01*
X132378213Y-66510292D01*
X132489707Y-66621786D01*
X132489711Y-66621789D01*
X132620814Y-66709390D01*
X132620827Y-66709397D01*
X132766498Y-66769735D01*
X132766503Y-66769737D01*
X132921153Y-66800499D01*
X132921156Y-66800500D01*
X132921158Y-66800500D01*
X133078844Y-66800500D01*
X133078845Y-66800499D01*
X133233497Y-66769737D01*
X133379179Y-66709394D01*
X133510289Y-66621789D01*
X133621789Y-66510289D01*
X133709394Y-66379179D01*
X133769737Y-66233497D01*
X133800500Y-66078842D01*
X133800500Y-65921158D01*
X133800500Y-65921155D01*
X133800499Y-65921153D01*
X133769738Y-65766510D01*
X133769737Y-65766503D01*
X133769735Y-65766498D01*
X133709397Y-65620827D01*
X133709390Y-65620814D01*
X133621789Y-65489711D01*
X133621786Y-65489707D01*
X133510292Y-65378213D01*
X133510288Y-65378210D01*
X133379185Y-65290609D01*
X133379172Y-65290602D01*
X133233501Y-65230264D01*
X133233489Y-65230261D01*
X133078845Y-65199500D01*
X133078842Y-65199500D01*
X132921158Y-65199500D01*
X132921155Y-65199500D01*
X132766510Y-65230261D01*
X132766498Y-65230264D01*
X132620827Y-65290602D01*
X132620814Y-65290609D01*
X132489711Y-65378210D01*
X132489707Y-65378213D01*
X132378213Y-65489707D01*
X132378210Y-65489711D01*
X132290609Y-65620814D01*
X132290602Y-65620827D01*
X132230264Y-65766498D01*
X132230261Y-65766510D01*
X132199500Y-65921153D01*
X113100500Y-65921153D01*
X113100500Y-51928948D01*
X113120185Y-51861909D01*
X113172989Y-51816154D01*
X113224500Y-51804948D01*
X139090572Y-51804948D01*
X139157611Y-51824633D01*
G37*
%TD.AperFunction*%
%TD*%
M02*
