M48
; DRILL file {KiCad 9.0.5} date 2026-03-12T09:01:13-0400
; FORMAT={-:-/ absolute / metric / decimal}
; #@! TF.CreationDate,2026-03-12T09:01:13-04:00
; #@! TF.GenerationSoftware,Kicad,Pcbnew,9.0.5
; #@! TF.FileFunction,Plated,1,4,PTH
FMAT,2
METRIC
; #@! TA.AperFunction,Plated,PTH,ViaDrill
T1C0.300
; #@! TA.AperFunction,Plated,PTH,ComponentDrill
T2C0.650
; #@! TA.AperFunction,Plated,PTH,ComponentDrill
T3C1.000
%
G90
G05
T1
X116.0Y-79.0
X118.0Y-88.0
X120.0Y-85.0
X124.928Y-92.292
X125.0Y-87.0
X125.0Y-89.45
X128.0Y-78.95
X129.05Y-86.45
X130.3Y-85.7
X132.0Y-82.0
X133.0Y-66.0
T2
X117.73Y-76.19
X117.73Y-77.46
X117.73Y-78.73
X117.73Y-80.0
X117.73Y-81.27
X119.0Y-76.19
X119.0Y-77.46
X119.0Y-78.73
X119.0Y-80.0
X119.0Y-81.27
T3
X116.047Y-88.046
X116.047Y-90.546
X136.405Y-88.006
X136.405Y-90.506
M30
