%TF.GenerationSoftware,KiCad,Pcbnew,9.0.5*%
%TF.CreationDate,2026-03-12T09:01:16-04:00*%
%TF.ProjectId,MeshMite,4d657368-4d69-4746-952e-6b696361645f,rev?*%
%TF.SameCoordinates,Original*%
%TF.FileFunction,Soldermask,Top*%
%TF.FilePolarity,Negative*%
%FSLAX46Y46*%
G04 Gerber Fmt 4.6, Leading zero omitted, Abs format (unit mm)*
G04 Created by KiCad (PCBNEW 9.0.5) date 2026-03-12 09:01:16*
%MOMM*%
%LPD*%
G01*
G04 APERTURE LIST*
G04 Aperture macros list*
%AMRoundRect*
0 Rectangle with rounded corners*
0 $1 Rounding radius*
0 $2 $3 $4 $5 $6 $7 $8 $9 X,Y pos of 4 corners*
0 Add a 4 corners polygon primitive as box body*
4,1,4,$2,$3,$4,$5,$6,$7,$8,$9,$2,$3,0*
0 Add four circle primitives for the rounded corners*
1,1,$1+$1,$2,$3*
1,1,$1+$1,$4,$5*
1,1,$1+$1,$6,$7*
1,1,$1+$1,$8,$9*
0 Add four rect primitives between the rounded corners*
20,1,$1+$1,$2,$3,$4,$5,0*
20,1,$1+$1,$4,$5,$6,$7,0*
20,1,$1+$1,$6,$7,$8,$9,0*
20,1,$1+$1,$8,$9,$2,$3,0*%
G04 Aperture macros list end*
%ADD10RoundRect,0.218750X0.381250X-0.218750X0.381250X0.218750X-0.381250X0.218750X-0.381250X-0.218750X0*%
%ADD11RoundRect,0.140000X-0.140000X-0.170000X0.140000X-0.170000X0.140000X0.170000X-0.140000X0.170000X0*%
%ADD12RoundRect,0.100000X0.130000X0.100000X-0.130000X0.100000X-0.130000X-0.100000X0.130000X-0.100000X0*%
%ADD13RoundRect,0.100000X-0.130000X-0.100000X0.130000X-0.100000X0.130000X0.100000X-0.130000X0.100000X0*%
%ADD14RoundRect,0.100000X-0.100000X0.130000X-0.100000X-0.130000X0.100000X-0.130000X0.100000X0.130000X0*%
%ADD15RoundRect,0.100000X0.100000X-0.130000X0.100000X0.130000X-0.100000X0.130000X-0.100000X-0.130000X0*%
%ADD16RoundRect,0.140000X0.170000X-0.140000X0.170000X0.140000X-0.170000X0.140000X-0.170000X-0.140000X0*%
%ADD17RoundRect,0.250000X-0.475000X0.250000X-0.475000X-0.250000X0.475000X-0.250000X0.475000X0.250000X0*%
%ADD18RoundRect,0.140000X0.140000X0.170000X-0.140000X0.170000X-0.140000X-0.170000X0.140000X-0.170000X0*%
%ADD19C,1.000000*%
%ADD20RoundRect,0.050000X-0.050000X0.350000X-0.050000X-0.350000X0.050000X-0.350000X0.050000X0.350000X0*%
%ADD21RoundRect,0.050000X-0.350000X0.050000X-0.350000X-0.050000X0.350000X-0.050000X0.350000X0.050000X0*%
%ADD22R,4.600000X4.600000*%
%ADD23RoundRect,0.300000X0.000010X-0.500000X0.000010X0.500000X-0.000010X0.500000X-0.000010X-0.500000X0*%
%ADD24R,1.000000X1.500000*%
%ADD25RoundRect,0.250000X-0.750000X0.600000X-0.750000X-0.600000X0.750000X-0.600000X0.750000X0.600000X0*%
%ADD26O,2.000000X1.700000*%
%ADD27RoundRect,0.062500X-0.350000X-0.062500X0.350000X-0.062500X0.350000X0.062500X-0.350000X0.062500X0*%
%ADD28RoundRect,0.062500X-0.062500X-0.350000X0.062500X-0.350000X0.062500X0.350000X-0.062500X0.350000X0*%
%ADD29R,1.680000X1.680000*%
%ADD30RoundRect,0.250000X0.750000X-0.600000X0.750000X0.600000X-0.750000X0.600000X-0.750000X-0.600000X0*%
%ADD31R,1.000000X1.000000*%
%ADD32RoundRect,0.250000X0.475000X-0.250000X0.475000X0.250000X-0.475000X0.250000X-0.475000X-0.250000X0*%
G04 APERTURE END LIST*
%TO.C,JP1*%
G36*
X129850000Y-81250000D02*
G01*
X130150000Y-81250000D01*
X130150000Y-82750000D01*
X129850000Y-82750000D01*
X129850000Y-81250000D01*
G37*
%TD*%
D10*
%TO.C,L1*%
X123000000Y-87000000D03*
X123000000Y-84875000D03*
%TD*%
D11*
%TO.C,C10*%
X130520000Y-66000000D03*
X131480000Y-66000000D03*
%TD*%
D12*
%TO.C,ROC1_2*%
X123320000Y-91000000D03*
X122680000Y-91000000D03*
%TD*%
D13*
%TO.C,ROC1_1*%
X122680000Y-92000000D03*
X123320000Y-92000000D03*
%TD*%
D14*
%TO.C,ROK1_1*%
X131741422Y-89021513D03*
X131741422Y-89661513D03*
%TD*%
D13*
%TO.C,ROC2_2*%
X122680000Y-89000000D03*
X123320000Y-89000000D03*
%TD*%
%TO.C,ROK1_2*%
X130715825Y-87821299D03*
X131355825Y-87821299D03*
%TD*%
D12*
%TO.C,ROC2_1*%
X123320000Y-90000000D03*
X122680000Y-90000000D03*
%TD*%
D15*
%TO.C,RUV1_1*%
X129591580Y-91538650D03*
X129591580Y-90898650D03*
%TD*%
D12*
%TO.C,RUV1_2*%
X131325303Y-91631720D03*
X130685303Y-91631720D03*
%TD*%
D13*
%TO.C,L3*%
X132680000Y-69000000D03*
X133320000Y-69000000D03*
%TD*%
%TO.C,L2*%
X131000000Y-69000000D03*
X131640000Y-69000000D03*
%TD*%
D16*
%TO.C,C9*%
X132516042Y-70953820D03*
X132516042Y-69993820D03*
%TD*%
D17*
%TO.C,C7*%
X128000000Y-76050000D03*
X128000000Y-77950000D03*
%TD*%
D16*
%TO.C,C6*%
X131263466Y-70944438D03*
X131263466Y-69984438D03*
%TD*%
D18*
%TO.C,C5*%
X131884391Y-67308870D03*
X130924391Y-67308870D03*
%TD*%
D19*
%TO.C,TP3*%
X136000000Y-83000000D03*
%TD*%
D20*
%TO.C,U1*%
X129000000Y-68000000D03*
X128600000Y-68000000D03*
X128200000Y-68000000D03*
X127800000Y-68000000D03*
X127400000Y-68000000D03*
X127000000Y-68000000D03*
X126600000Y-68000000D03*
X126200000Y-68000000D03*
X125800000Y-68000000D03*
X125400000Y-68000000D03*
X125000000Y-68000000D03*
X124600000Y-68000000D03*
D21*
X123850000Y-68750000D03*
X123850000Y-69150000D03*
X123850000Y-69550000D03*
X123850000Y-69950000D03*
X123850000Y-70350000D03*
X123850000Y-70750000D03*
X123850000Y-71150000D03*
X123850000Y-71550000D03*
X123850000Y-71950000D03*
X123850000Y-72350000D03*
X123850000Y-72750000D03*
X123850000Y-73150000D03*
D20*
X124600000Y-73900000D03*
X125000000Y-73900000D03*
X125400000Y-73900000D03*
X125800000Y-73900000D03*
X126200000Y-73900000D03*
X126600000Y-73900000D03*
X127000000Y-73900000D03*
X127400000Y-73900000D03*
X127800000Y-73900000D03*
X128200000Y-73900000D03*
X128600000Y-73900000D03*
X129000000Y-73900000D03*
D21*
X129750000Y-73150000D03*
X129750000Y-72750000D03*
X129750000Y-72350000D03*
X129750000Y-71950000D03*
X129750000Y-71550000D03*
X129750000Y-71150000D03*
X129750000Y-70750000D03*
X129750000Y-70350000D03*
X129750000Y-69950000D03*
X129750000Y-69550000D03*
X129750000Y-69150000D03*
X129750000Y-68750000D03*
D22*
X126800000Y-70950000D03*
%TD*%
D23*
%TO.C,U2*%
X122526250Y-64200000D03*
X123796250Y-64200000D03*
X125066250Y-64200000D03*
X126336250Y-64200000D03*
X127606250Y-64200000D03*
X128876250Y-64200000D03*
X130146250Y-64200000D03*
X131416250Y-64200000D03*
X127606250Y-53800000D03*
X126336250Y-53800000D03*
X125066250Y-53800000D03*
X123796250Y-53800000D03*
%TD*%
D17*
%TO.C,C1*%
X121000000Y-85100000D03*
X121000000Y-87000000D03*
%TD*%
D19*
%TO.C,TP1*%
X133000000Y-80000000D03*
%TD*%
D16*
%TO.C,C2*%
X128000000Y-85000000D03*
X128000000Y-84040000D03*
%TD*%
%TO.C,C4*%
X124913550Y-91385143D03*
X124913550Y-90425143D03*
%TD*%
D11*
%TO.C,C8*%
X131085273Y-73056295D03*
X132045273Y-73056295D03*
%TD*%
D19*
%TO.C,TP2*%
X131000000Y-85000000D03*
%TD*%
D24*
%TO.C,JP1*%
X129350000Y-82000000D03*
X130650000Y-82000000D03*
%TD*%
D25*
%TO.C,SC1*%
X116047499Y-88046242D03*
D26*
X116047499Y-90546242D03*
%TD*%
D27*
%TO.C,U3*%
X125837500Y-87237500D03*
X125837500Y-87737500D03*
X125837500Y-88237500D03*
X125837500Y-88737500D03*
D28*
X126550000Y-89450000D03*
X127050000Y-89450000D03*
X127550000Y-89450000D03*
X128050000Y-89450000D03*
D27*
X128762500Y-88737500D03*
X128762500Y-88237500D03*
X128762500Y-87737500D03*
X128762500Y-87237500D03*
D28*
X128050000Y-86525000D03*
X127550000Y-86525000D03*
X127050000Y-86525000D03*
X126550000Y-86525000D03*
D29*
X127300000Y-87987500D03*
%TD*%
D30*
%TO.C,BT1*%
X136405368Y-90506457D03*
D26*
X136405368Y-88006457D03*
%TD*%
D31*
%TO.C,J1*%
X117730000Y-76190000D03*
D19*
X119000000Y-76190000D03*
X117730000Y-77460000D03*
X119000000Y-77460000D03*
X117730000Y-78730000D03*
X119000000Y-78730000D03*
X117730000Y-80000000D03*
X119000000Y-80000000D03*
X117730000Y-81270000D03*
X119000000Y-81270000D03*
%TD*%
D32*
%TO.C,C3*%
X126000000Y-84000000D03*
X126000000Y-82100000D03*
%TD*%
D15*
%TO.C,ROK2*%
X130693077Y-89686110D03*
X130693077Y-89046110D03*
%TD*%
D14*
%TO.C,RUV1*%
X128199699Y-91365221D03*
X128199699Y-92005221D03*
%TD*%
D15*
%TO.C,ROV2*%
X126033490Y-92011253D03*
X126033490Y-91371253D03*
%TD*%
D14*
%TO.C,ROV1*%
X127033490Y-91371253D03*
X127033490Y-92011253D03*
%TD*%
D12*
%TO.C,ROK3*%
X131371888Y-90747944D03*
X130731888Y-90747944D03*
%TD*%
M02*
